<svg width="60" height="77" viewBox="0 0 60 77" fill="none" xmlns="http://www.w3.org/2000/svg">
<path fill-rule="evenodd" clip-rule="evenodd" d="M40.363 76.5849L30.3066 73.7354L20.3982 77C-10.8279 56.9302 -5.04142 17.6312 29.8236 29.952C67.6845 17.0634 68.4349 57.5744 40.363 76.5849ZM31.0484 35.9263L31.0329 67.6753L39.7311 70.0642C60.8974 55.1195 60.9883 23.5755 31.0484 35.9263ZM36.081 55.4223C36.081 55.4223 36.081 49.4806 36.081 46.0152C36.081 40.734 44.2426 40.2048 44.2426 46.0152C44.2426 51.7922 36.081 55.4223 36.081 55.4223ZM27.6372 24.3929L9.91941 5.53425L15.4514 0L25.0456 13.9257C26.5465 6.24618 35.6395 0.744531 44.4659 0.0694762C48.6242 12.3586 43.8254 26.7123 27.6372 24.3929Z" fill="#767676"/>
</svg>
