<svg width="68" height="80" viewBox="0 0 68 80" fill="none" xmlns="http://www.w3.org/2000/svg">
<path fill-rule="evenodd" clip-rule="evenodd" d="M55.292 50.4676L35.4283 54.9521C33.5661 57.9614 38.7389 60.1859 39.5263 59.4306L40.2793 60.6933C37.5894 63.9445 32.1521 65.7914 27.8874 64.3163C18.6223 73.9578 7.28797 80 7.28797 80L0 30.683C0 30.683 12.8747 33.2674 24.594 39.7109C28.6174 37.2916 34.4225 36.8727 38.9631 39.9056L38.7102 41.5224C35.003 41.4633 32.7959 44.0832 33.8304 46.0304L33.9684 46.1602L54.3667 44.449L67.293 37.2975L68 51.6241L55.292 50.4676ZM11.6217 66.6765C8.79385 67.1367 9.25366 71.6861 12.5183 71.155C15.2714 70.7302 14.5012 66.2281 11.6217 66.6765ZM17.7659 48.3847L13.0931 49.4232L15.7025 61.2716L19.4557 60.3157L17.7659 48.3847ZM26.9621 46.4847L22.2433 47.2577L24.6228 59.0176L28.4219 58.0617L26.9621 46.4847ZM37.9745 33.0432L38.7906 24.2632L36.2559 23.6023L37.4859 17.3536L32.1406 17.2179C32.1406 17.2179 31.267 24.0566 31.0314 26.3461C30.2382 34.6423 19.5706 32.0283 22.7491 24.8237L28.7381 25.6498L29.6232 11.8012L44.1014 12.6331L41.8024 19.761L44.4635 20.4101L37.9745 33.0432ZM24.8987 5.72356C24.8987 5.72356 23.9733 13.1937 23.8239 14.7514C23.0134 23.266 11.432 20.9883 14.8633 13.1996L21.3409 14.0906L22.341 0L31.8992 0.513351C32.8419 3.99469 28.9105 5.72356 24.8987 5.72356Z" fill="#767676"/>
</svg>
