<svg width="87" height="71" viewBox="0 0 87 71" fill="none" xmlns="http://www.w3.org/2000/svg">
<path fill-rule="evenodd" clip-rule="evenodd" d="M86.8021 41.5694C86.1227 45.579 83.8041 48.8399 80.2752 50.7519C79.7944 51.0127 79.2891 51.2264 78.771 51.4118C79.4305 60.0609 65.5415 63.1977 58.0602 61.1332L60.8389 70.7525L53.6898 71L41.1691 53.2846C36.9536 54.4614 31.9682 55.0309 28.7556 49.9232C28.4513 49.4392 28.1859 48.9545 27.957 48.4667C27.1259 48.634 26.2939 48.7189 25.4699 48.7189C23.0717 48.7189 19.1321 48.0166 17.0931 46.6308C15.3918 45.4745 14.118 43.9709 13.4291 42.384C9.13184 42.963 5.51317 41.9677 3.07927 39.4955C0.0605353 36.4286 -0.80162 31.3507 0.772509 25.9106C2.87506 18.6457 9.18032 10.4585 21.7201 7.4089C22.7626 6.12607 24.0356 4.97521 25.5756 4.00032C33.4486 -0.987267 46.2419 -1.41776 55.933 3.31137C59.4356 2.62007 63.2744 2.93901 67.1402 4.37425C74.1169 6.96348 79.1881 12.3666 80.1409 17.8586C82.0297 18.857 83.5553 20.2938 84.5748 22.1894C86.6639 26.0717 86.9921 29.9634 85.5514 33.1057C86.8307 35.548 87.3067 38.5921 86.8021 41.5694ZM81.6491 37.4782C78.0137 39.5151 74.4435 37.4789 74.4435 37.4789L75.0204 33.6713C77.4718 33.9038 79.4686 33.1497 80.5088 31.6076C81.6705 29.888 81.4901 27.3294 80.0161 24.587C78.3633 21.5154 74.7955 21.0268 72.8153 21.0087C72.774 21.0087 72.7319 21.0079 72.6898 21.0079C67.733 21.0079 62.6785 23.7951 60.6363 27.4331L57.6629 26.0245C58.2954 24.0331 59.2974 22.3544 60.5672 20.9718C58.4408 19.2097 57.0566 16.0714 57.7415 12.9904L60.6744 12.7233C60.6506 14.0462 62.0992 17.1099 65.0838 17.7478C67.412 16.6928 70.0723 16.1688 72.8622 16.1884C73.2452 16.1916 73.6107 16.2277 73.9826 16.2513C72.3958 13.3627 69.4446 10.4648 65.4644 8.93997C56.6553 5.5636 50.7195 10.8049 49.3631 12.6062C46.0941 16.9489 48.1903 21.0425 49.7835 23.7087L47.1597 26.0403C45.0229 24.0787 43.2351 21.4942 42.8219 18.4792C39.4622 19.4768 34.9496 19.2372 32.422 14.9936L34.8082 13.3784C37.4876 15.3612 41.734 15.1892 43.7547 12.7406C44.1997 11.768 44.783 10.7727 45.5673 9.75304C46.7544 8.20861 48.1378 6.92263 49.6651 5.89432C43.0746 4.11736 33.7664 4.4096 28.1461 7.9698C24.9057 10.0217 23.33 12.8364 23.33 16.5749C23.33 19.3786 25.5573 23.8077 28.5498 24.5037L26.7961 27.8667C24.7317 27.3867 23.0821 26.3498 21.8131 25.0135L19.2282 28.2658L16.664 27.0136L19.1885 20.4816C18.7729 19.1799 18.5615 17.8413 18.5615 16.5749C18.5615 15.4704 18.691 14.4193 18.8976 13.4028C10.9849 16.6488 7.02294 22.0103 5.58469 26.979C4.48653 30.7741 4.91245 34.196 6.72496 36.0366C8.16162 37.4954 10.3659 37.838 12.4382 37.7052L17.96 33.4238L19.7868 34.9486L18.1316 40.3094C18.9994 43.0353 21.8361 44.443 27.013 43.432C27.195 41.5081 27.9952 39.5371 29.5105 37.4915C30.669 35.9282 31.9897 34.852 33.4279 34.1073L36.1455 26.8722L38.8671 26.752L38.5739 32.687C43.1413 32.2203 48.2554 33.145 53.0088 32.4348L53.8885 35.5559C46.9094 38.7437 39.765 33.5424 33.2889 40.4052C30.9623 42.8711 31.8467 45.0141 33.2968 47.1752C35.3684 50.2641 39.2612 48.4062 43.2414 47.2043C49.2773 45.3818 53.658 44.0974 61.9077 44.7282C59.9434 41.0329 60.1341 36.5622 62.7714 31.6429L66.6507 33.1622C63.9284 39.3745 66.4815 42.9677 68.2447 44.5561C70.9703 47.0103 75.0721 47.7487 77.7928 46.275C80.6423 44.7298 81.4695 42.1342 81.7087 40.7249C81.8914 39.6377 81.8557 38.5175 81.6491 37.4782Z" fill="#767676"/>
</svg>
