<svg width="84" height="71" viewBox="0 0 84 71" fill="none" xmlns="http://www.w3.org/2000/svg">
<path fill-rule="evenodd" clip-rule="evenodd" d="M78.7828 29.0481C83.087 26.6443 86.4522 32.7741 81.6471 35.4584C74.7025 39.4195 68.4308 44.5068 63.0761 50.5226C58.2475 46.396 53.3641 40.6267 51.165 36.6363L50.5076 15.859C50.5076 15.859 57.1284 5.67461 59.7031 2.39735C63.1074 -1.92158 68.2569 1.70824 64.8526 6.83648C62.2622 10.7468 56.0875 20.6747 56.0875 20.6747L57.2771 21.9007C57.2771 21.9007 68.0143 9.92944 70.6516 7.08487C74.3846 3.07844 79.6984 7.83809 75.5115 12.3573C72.6316 15.4663 61.2918 28.0946 61.2918 28.0946L62.3483 29.3286C62.3483 29.3286 73.2342 19.8494 76.1845 17.4135C80.4106 13.9279 84.5426 18.8317 80.0427 23.0225C76.9671 25.867 65.956 35.186 65.956 35.186L66.6134 36.3959C66.6134 36.3959 76.1376 30.4985 78.7828 29.0481ZM45.9608 67.59L35.1688 54.3688L33.5175 55.6909L41.0226 69.7535C38.2243 70.7351 35.2646 71.1435 32.3123 70.9554C28.4933 60.0259 20.9334 46.1156 2.02595 33.0065C-2.50527 29.8574 1.41552 24.1042 5.47718 26.9007C7.98149 28.6154 16.8561 35.4023 16.8561 35.4023L17.6387 34.2565C17.6387 34.2565 7.56671 23.9119 4.77285 20.7628C0.68771 16.1715 5.26588 11.7003 9.13972 15.5785C11.8475 18.2949 21.8021 28.7997 21.8021 28.7997L23.0073 27.686C23.0073 27.686 12.904 14 10.3293 10.6186C6.59629 5.70666 12.3327 1.47587 15.6666 5.81083C18.0143 8.9038 27.5933 21.8366 27.5933 21.8366L28.8846 20.7308C28.8846 20.7308 23.6412 10.2419 21.4264 6.09128C18.523 0.730673 24.0012 -2.37832 26.9672 2.26113C29.5811 6.32365 32.2028 11.3157 34.9966 16.6843L35.4192 29.9696L37.9392 30.0978C38.1583 26.5241 38.4792 21.4039 38.667 19.3365C39.1913 13.6474 40.7017 10.8669 46.3286 10.0897L47.4164 38.4873C51.4076 44.4248 55.8841 49.7854 61.057 53.7117C57.1677 59.4931 51.9939 64.2468 45.9608 67.582V67.59Z" fill="#767676"/>
</svg>
