<svg width="65" height="77" viewBox="0 0 65 77" fill="none" xmlns="http://www.w3.org/2000/svg">
<path fill-rule="evenodd" clip-rule="evenodd" d="M28.2143 56.2901C18.9759 55.1578 21.0143 42.034 29.6871 43.0979C38.3269 44.1558 36.6514 57.3237 28.2143 56.2901ZM0 64.411C1.06124 60.7648 2.27842 55.8226 5.7489 54.6115C15.5123 38.5107 39.3864 0 39.3864 0L44.3105 0.984277C44.3105 0.984277 48.2861 16.261 52.3405 31.4424L46.1558 30.8286C43.1488 19.2882 40.4849 9.13553 40.4849 9.13553C40.4849 9.13553 38.3286 12.7117 35.1882 17.9187C43.2554 25.3264 34.9205 40.0205 24.2223 36.1102C19.6395 43.7169 15.2628 50.986 12.9064 54.9154C20.4564 62.0269 46.3152 64.8768 53.7179 60.1631C53.3532 58.7001 52.8784 56.8268 52.3292 54.6799C51.1164 55.0443 49.7484 55.1733 48.2306 54.9872C34.5324 53.3087 37.5558 33.8473 50.4155 35.4237C58.7001 36.4391 60.5809 44.96 57.4977 50.4424C58.7504 54.9439 59.7735 58.4785 60.3479 60.1882C64.6344 62.6675 64.5045 69.9505 65 71.9728C50.9578 81.0226 14.2631 77.4681 0 64.411Z" fill="#767676"/>
</svg>
