<svg width="69" height="63" viewBox="0 0 69 63" fill="none" xmlns="http://www.w3.org/2000/svg">
<path fill-rule="evenodd" clip-rule="evenodd" d="M34.5 63C15.4458 63 0 47.521 0 28.4271C0 27.2847 0.0560836 26.1549 0.164301 25.041L21.9168 39.4093L23.5219 39.73L68.1801 20.91C68.7156 23.331 69 25.8454 69 28.4271C69.0008 47.521 53.5549 63 34.5 63ZM21.9176 33.7147L1.06637 19.8674C1.58613 17.8216 2.28994 15.8496 3.15568 13.9677L21.1063 25.5802H22.7312L62.8142 8.67213C64.2771 10.7733 65.5141 13.0454 66.4873 15.4529L23.7162 33.8406L21.9176 33.7147ZM21.1055 19.8856L5.46932 9.74328C6.61705 7.95724 7.92356 6.28362 9.37067 4.74299L21.927 13.0604L54.1324 0C56.1553 1.40524 58.0227 3.02028 59.698 4.81662L22.6435 20.2181L21.1055 19.8856Z" fill="#767676"/>
</svg>
