<svg width="78" height="78" viewBox="0 0 78 78" fill="none" xmlns="http://www.w3.org/2000/svg">
    <g id="eagle>">
        <path fill-rule="evenodd" clip-rule="evenodd"
              d="M72.0725 30.1638C70.6593 31.0236 68.9975 32.0202 67.2572 33.0624C67.3193 33.8863 67.3193 34.7137 67.2572 35.5376L78 34.795C78 34.795 76.1223 44.1291 69.763 43.3084L65.0785 42.657C64.6846 43.3354 64.2475 43.9881 63.77 44.6111L73.7604 49.4312C73.7604 49.4312 67.9638 56.0621 63.2466 52.4991C62.0035 51.5611 60.4987 50.4082 58.9482 49.2423C58.1373 49.8129 57.2917 50.3328 56.4162 50.799L62.4746 57.964C62.4746 57.964 54.9572 61.4488 52.2748 56.5962C51.7252 55.6061 51.0906 54.4402 50.4298 53.2221C49.2309 53.5718 48.0146 53.8588 46.7856 54.0819C48.4409 57.443 50.456 61.5465 51.6663 64.0413C53.302 67.4023 51.1691 70.1511 47.0081 73.1213L43.8807 62.4259L42.075 62.9079L43.9985 75.121C42.5264 76.0394 40.9235 76.9904 39.2094 78C37.4429 77.1793 35.7745 76.339 34.2567 75.4792L36.1344 62.5366L34.3221 62.1132L31.1621 73.5316C26.9094 70.5419 24.7438 67.3502 26.4711 64.0022L31.5677 54.1601C30.2168 53.9258 28.8801 53.617 27.5637 53.2351C26.9094 54.4597 26.2552 55.6191 25.7121 56.6157C23.0362 61.4684 15.5123 57.9836 15.5123 57.9836L21.5773 50.8186C20.7039 50.3463 19.8585 49.8243 19.0453 49.2553C17.4947 50.4473 15.9899 51.6002 14.7469 52.5121C10.0297 56.0751 4.22647 49.4442 4.22647 49.4442L14.2235 44.6176C13.7467 43.9941 13.3097 43.3414 12.9149 42.6635C11.2204 42.898 9.60443 43.113 8.22396 43.3149C1.86462 44.1356 0 34.7885 0 34.7885L10.7428 35.5311C10.6807 34.7072 10.6807 33.8798 10.7428 33.0559C8.98289 32.0072 7.32109 31.0106 5.9079 30.1638C-0.713135 26.1449 4.63865 15.9381 4.63865 15.9381L23.1278 32.9191C20.0398 35.8307 21.2501 42.4355 26.687 42.4355C34.3352 42.4355 33.9884 31.5578 26.8113 31.5578C26.3599 31.5557 25.9098 31.6059 25.4701 31.7076L24.8812 29.8316L28.7413 27.7408L28.303 26.4836C28.303 26.4836 24.8943 26.2491 22.8988 28.3075L21.2763 20.2957L37.8812 22.1456L35.6502 25.8192L39.0851 32.9842L42.5199 25.8192L40.3216 22.1456L56.0237 20.0156L55.2713 28.3075C53.6029 26.2101 49.7297 26.4836 49.7297 26.4836L49.2914 27.7408L53.4066 29.9163L52.7524 31.7076C52.3055 31.6091 51.8492 31.5589 51.3915 31.5578C44.1948 31.5578 43.8676 42.4355 51.5093 42.4355C57.005 42.4355 58.2023 35.7004 54.9768 32.8344L73.381 15.899C73.381 15.899 78.6935 26.1319 72.0725 30.1638ZM33.5239 17.4622C25.1495 6.67566 34.9633 4.94304 34.9633 4.94304L39.0131 11.118L43.2461 4.87139C43.2461 4.87139 52.4056 6.63658 45.1565 17.5078L33.5239 17.4622ZM36.1409 1.82952C37.2073 -0.717314 40.8908 -0.391631 42.232 1.49732L39.0131 6.86456L36.1409 1.82952Z"
              fill="#C5C5C5"/>
    </g>
    <g id="apple">
        <path fill-rule="evenodd" clip-rule="evenodd"
              d="M40.363 76.5849L30.3066 73.7354L20.3982 77C-10.8279 56.9302 -5.04142 17.6312 29.8236 29.952C67.6845 17.0634 68.4349 57.5744 40.363 76.5849ZM31.0484 35.9263L31.0329 67.6753L39.7311 70.0642C60.8974 55.1195 60.9883 23.5755 31.0484 35.9263ZM36.081 55.4223C36.081 55.4223 36.081 49.4806 36.081 46.0152C36.081 40.734 44.2426 40.2048 44.2426 46.0152C44.2426 51.7922 36.081 55.4223 36.081 55.4223ZM27.6372 24.3929L9.91941 5.53425L15.4514 0L25.0456 13.9257C26.5465 6.24618 35.6395 0.744531 44.4659 0.0694762C48.6242 12.3586 43.8254 26.7123 27.6372 24.3929Z"
              fill="#767676"/>
    </g>

    <g id=" balalaika">
        <path fill-rule="evenodd" clip-rule="evenodd" d="M55.292 50.4676L35.4283 54.9521C33.5661 57.9614 38.7389 60.1859 39.5263 59.4306L40.2793 60.6933C37.5894 63.9445 32.1521 65.7914 27.8874 64.3163C18.6223 73.9578 7.28797 80 7.28797 80L0 30.683C0 30.683 12.8747 33.2674 24.594 39.7109C28.6174 37.2916 34.4225 36.8727 38.9631 39.9056L38.7102 41.5224C35.003 41.4633 32.7959 44.0832 33.8304 46.0304L33.9684 46.1602L54.3667 44.449L67.293 37.2975L68 51.6241L55.292 50.4676ZM11.6217 66.6765C8.79385 67.1367 9.25366 71.6861 12.5183 71.155C15.2714 70.7302 14.5012 66.2281 11.6217 66.6765ZM17.7659 48.3847L13.0931 49.4232L15.7025 61.2716L19.4557 60.3157L17.7659 48.3847ZM26.9621 46.4847L22.2433 47.2577L24.6228 59.0176L28.4219 58.0617L26.9621 46.4847ZM37.9745 33.0432L38.7906 24.2632L36.2559 23.6023L37.4859 17.3536L32.1406 17.2179C32.1406 17.2179 31.267 24.0566 31.0314 26.3461C30.2382 34.6423 19.5706 32.0283 22.7491 24.8237L28.7381 25.6498L29.6232 11.8012L44.1014 12.6331L41.8024 19.761L44.4635 20.4101L37.9745 33.0432ZM24.8987 5.72356C24.8987 5.72356 23.9733 13.1937 23.8239 14.7514C23.0134 23.266 11.432 20.9883 14.8633 13.1996L21.3409 14.0906L22.341 0L31.8992 0.513351C32.8419 3.99469 28.9105 5.72356 24.8987 5.72356Z" fill="#767676"/>
    </g>

    <g>
        <path id="brain" fill-rule="evenodd" clip-rule="evenodd" d="M86.8021 41.5694C86.1227 45.579 83.8041 48.8399 80.2752 50.7519C79.7944 51.0127 79.2891 51.2264 78.771 51.4118C79.4305 60.0609 65.5415 63.1977 58.0602 61.1332L60.8389 70.7525L53.6898 71L41.1691 53.2846C36.9536 54.4614 31.9682 55.0309 28.7556 49.9232C28.4513 49.4392 28.1859 48.9545 27.957 48.4667C27.1259 48.634 26.2939 48.7189 25.4699 48.7189C23.0717 48.7189 19.1321 48.0166 17.0931 46.6308C15.3918 45.4745 14.118 43.9709 13.4291 42.384C9.13184 42.963 5.51317 41.9677 3.07927 39.4955C0.0605353 36.4286 -0.80162 31.3507 0.772509 25.9106C2.87506 18.6457 9.18032 10.4585 21.7201 7.4089C22.7626 6.12607 24.0356 4.97521 25.5756 4.00032C33.4486 -0.987267 46.2419 -1.41776 55.933 3.31137C59.4356 2.62007 63.2744 2.93901 67.1402 4.37425C74.1169 6.96348 79.1881 12.3666 80.1409 17.8586C82.0297 18.857 83.5553 20.2938 84.5748 22.1894C86.6639 26.0717 86.9921 29.9634 85.5514 33.1057C86.8307 35.548 87.3067 38.5921 86.8021 41.5694ZM81.6491 37.4782C78.0137 39.5151 74.4435 37.4789 74.4435 37.4789L75.0204 33.6713C77.4718 33.9038 79.4686 33.1497 80.5088 31.6076C81.6705 29.888 81.4901 27.3294 80.0161 24.587C78.3633 21.5154 74.7955 21.0268 72.8153 21.0087C72.774 21.0087 72.7319 21.0079 72.6898 21.0079C67.733 21.0079 62.6785 23.7951 60.6363 27.4331L57.6629 26.0245C58.2954 24.0331 59.2974 22.3544 60.5672 20.9718C58.4408 19.2097 57.0566 16.0714 57.7415 12.9904L60.6744 12.7233C60.6506 14.0462 62.0992 17.1099 65.0838 17.7478C67.412 16.6928 70.0723 16.1688 72.8622 16.1884C73.2452 16.1916 73.6107 16.2277 73.9826 16.2513C72.3958 13.3627 69.4446 10.4648 65.4644 8.93997C56.6553 5.5636 50.7195 10.8049 49.3631 12.6062C46.0941 16.9489 48.1903 21.0425 49.7835 23.7087L47.1597 26.0403C45.0229 24.0787 43.2351 21.4942 42.8219 18.4792C39.4622 19.4768 34.9496 19.2372 32.422 14.9936L34.8082 13.3784C37.4876 15.3612 41.734 15.1892 43.7547 12.7406C44.1997 11.768 44.783 10.7727 45.5673 9.75304C46.7544 8.20861 48.1378 6.92263 49.6651 5.89432C43.0746 4.11736 33.7664 4.4096 28.1461 7.9698C24.9057 10.0217 23.33 12.8364 23.33 16.5749C23.33 19.3786 25.5573 23.8077 28.5498 24.5037L26.7961 27.8667C24.7317 27.3867 23.0821 26.3498 21.8131 25.0135L19.2282 28.2658L16.664 27.0136L19.1885 20.4816C18.7729 19.1799 18.5615 17.8413 18.5615 16.5749C18.5615 15.4704 18.691 14.4193 18.8976 13.4028C10.9849 16.6488 7.02294 22.0103 5.58469 26.979C4.48653 30.7741 4.91245 34.196 6.72496 36.0366C8.16162 37.4954 10.3659 37.838 12.4382 37.7052L17.96 33.4238L19.7868 34.9486L18.1316 40.3094C18.9994 43.0353 21.8361 44.443 27.013 43.432C27.195 41.5081 27.9952 39.5371 29.5105 37.4915C30.669 35.9282 31.9897 34.852 33.4279 34.1073L36.1455 26.8722L38.8671 26.752L38.5739 32.687C43.1413 32.2203 48.2554 33.145 53.0088 32.4348L53.8885 35.5559C46.9094 38.7437 39.765 33.5424 33.2889 40.4052C30.9623 42.8711 31.8467 45.0141 33.2968 47.1752C35.3684 50.2641 39.2612 48.4062 43.2414 47.2043C49.2773 45.3818 53.658 44.0974 61.9077 44.7282C59.9434 41.0329 60.1341 36.5622 62.7714 31.6429L66.6507 33.1622C63.9284 39.3745 66.4815 42.9677 68.2447 44.5561C70.9703 47.0103 75.0721 47.7487 77.7928 46.275C80.6423 44.7298 81.4695 42.1342 81.7087 40.7249C81.8914 39.6377 81.8557 38.5175 81.6491 37.4782Z" fill="#767676"/>
    </g>
    <g>
        <path id ="coctail" fill-rule="evenodd" clip-rule="evenodd" d="M49.8818 27.1543C49.3273 27.1543 48.7913 27.1289 48.2703 27.0843L50.3173 23.3055C62.3024 22.7133 62.1912 3.81844 49.5247 3.81844C44.0051 3.81844 40.7449 7.3836 39.8811 11.4652L51.8326 11.4037L52.9959 13.6338L29.7748 46.6244L30.6444 62.9163C48.2018 63.8445 46.9909 72 27.6273 72C6.45119 72 6.13045 63.8643 23.8005 62.9191L24.5639 46.7864L0 14.2613L1.60656 11.6633L35.9809 11.4858C36.8975 5.46129 41.5154 1.38252e-08 49.576 1.38252e-08C67.4799 -0.000707499 67.3672 27.1543 49.8818 27.1543ZM5.79617 15.5582C5.79617 15.5582 20.3571 34.6568 22.2003 37.1522C24.0699 39.6837 30.3793 39.4389 32.0984 37.1331C33.6779 35.0148 47.0871 15.2228 47.0871 15.2228L5.79617 15.5582ZM30.6159 34.2535C29.1854 36.3704 25.0378 36.4305 23.139 33.9089C21.6508 31.9314 13.0756 20.44 13.0756 20.44C24.628 15.1033 27.144 25.5844 39.5297 20.953C39.5297 20.953 31.7314 32.6043 30.6159 34.2535Z" fill="#767676"/>
    </g>
    <g>
        <path id="fingerprint" fill-rule="evenodd" clip-rule="evenodd" d="M57.6052 49.6066C50.8288 49.6066 43.97 44.9408 43.97 36.0239C43.97 30.4226 39.6974 27.4926 35.4775 27.4926C33.3375 27.4926 31.3885 28.2587 29.9892 29.6506C28.3357 31.2963 27.4615 33.8132 27.4615 36.9302C27.4615 52.1728 35.2215 61.1539 51.8807 65.1947C53.428 65.5702 54.382 67.1467 54.0124 68.7147C53.6955 70.055 52.5153 70.9571 51.2131 70.9571C50.9909 70.9571 50.7654 70.9312 50.5407 70.877C31.4041 66.2345 21.7008 54.8132 21.7008 36.931C21.7008 30.9667 24.0145 27.4133 25.9553 25.4814C28.4377 23.0112 31.8206 21.6509 35.4783 21.6509C44.7363 21.6509 49.7316 29.0565 49.7316 36.0239C49.7316 41.3715 53.6865 43.7649 57.606 43.7649C59.8588 43.7649 62.0358 42.9638 63.5774 41.5668C65.3191 39.9896 66.2393 37.6804 66.2393 34.8906C66.2393 16.9475 50.1143 5.84167 35.1746 5.84167C25.3092 5.84167 16.8809 10.2021 11.4428 18.12C5.10343 27.3515 3.9931 40.1924 8.47312 52.4699C9.02458 53.982 8.26241 55.6636 6.77099 56.2227C5.27792 56.7827 3.62107 56.0099 3.0696 54.4961C-2.06312 40.4277 -0.700099 25.5807 6.71667 14.7819C13.1663 5.38769 23.5379 0 35.1738 0C45.6928 0 55.2742 3.93645 62.1535 11.0841C68.4114 17.5851 72 26.2625 72 34.8906C72 40.5762 69.5069 44.0287 67.4163 45.923C64.7931 48.2989 61.309 49.6066 57.6052 49.6066ZM34.5993 10.5667C47.3496 9.78313 60.5855 19.8183 60.5855 35.3012C60.5855 36.9143 59.2958 38.222 57.7048 38.222C56.1138 38.222 54.8248 36.9143 54.8248 35.3012C54.8248 23.0304 44.3594 15.4571 34.5993 16.4093C25.5997 17.2863 16.6685 23.3784 16.2636 36.4353C15.8125 50.9602 21.1173 60.8752 31.5399 67.6157C32.8807 68.4836 33.2741 70.2895 32.4181 71.6489C31.8691 72.5227 30.9382 73 29.9868 73C29.4567 73 28.9209 72.8523 28.4402 72.5418C16.3697 64.734 10.0666 52.918 10.5012 36.4362C10.9481 19.492 22.8877 11.2878 34.5993 10.5667ZM33.0667 36.4403C33.0667 34.8264 34.3565 33.5195 35.9483 33.5195C37.5393 33.5195 38.8291 34.8264 38.8291 36.4403C38.8291 41.9999 40.6958 46.5798 44.2268 49.6842C48.5949 53.5247 55.303 54.9159 63.6268 53.7066C65.1981 53.4813 66.6615 54.5879 66.887 56.1843C67.1117 57.7816 66.0187 59.2604 64.4433 59.4891C62.2309 59.8103 60.1024 59.9706 58.0686 59.9706C50.8831 59.9706 44.8697 57.9811 40.4522 54.0972C35.6899 49.9112 33.0667 43.6398 33.0667 36.4403Z" fill="#767676"/>
    </g>
    <g>
        <path id="gloves" fill-rule="evenodd" clip-rule="evenodd" d="M78.7828 29.0481C83.087 26.6443 86.4522 32.7741 81.6471 35.4584C74.7025 39.4195 68.4308 44.5068 63.0761 50.5226C58.2475 46.396 53.3641 40.6267 51.165 36.6363L50.5076 15.859C50.5076 15.859 57.1284 5.67461 59.7031 2.39735C63.1074 -1.92158 68.2569 1.70824 64.8526 6.83648C62.2622 10.7468 56.0875 20.6747 56.0875 20.6747L57.2771 21.9007C57.2771 21.9007 68.0143 9.92944 70.6516 7.08487C74.3846 3.07844 79.6984 7.83809 75.5115 12.3573C72.6316 15.4663 61.2918 28.0946 61.2918 28.0946L62.3483 29.3286C62.3483 29.3286 73.2342 19.8494 76.1845 17.4135C80.4106 13.9279 84.5426 18.8317 80.0427 23.0225C76.9671 25.867 65.956 35.186 65.956 35.186L66.6134 36.3959C66.6134 36.3959 76.1376 30.4985 78.7828 29.0481ZM45.9608 67.59L35.1688 54.3688L33.5175 55.6909L41.0226 69.7535C38.2243 70.7351 35.2646 71.1435 32.3123 70.9554C28.4933 60.0259 20.9334 46.1156 2.02595 33.0065C-2.50527 29.8574 1.41552 24.1042 5.47718 26.9007C7.98149 28.6154 16.8561 35.4023 16.8561 35.4023L17.6387 34.2565C17.6387 34.2565 7.56671 23.9119 4.77285 20.7628C0.68771 16.1715 5.26588 11.7003 9.13972 15.5785C11.8475 18.2949 21.8021 28.7997 21.8021 28.7997L23.0073 27.686C23.0073 27.686 12.904 14 10.3293 10.6186C6.59629 5.70666 12.3327 1.47587 15.6666 5.81083C18.0143 8.9038 27.5933 21.8366 27.5933 21.8366L28.8846 20.7308C28.8846 20.7308 23.6412 10.2419 21.4264 6.09128C18.523 0.730673 24.0012 -2.37832 26.9672 2.26113C29.5811 6.32365 32.2028 11.3157 34.9966 16.6843L35.4192 29.9696L37.9392 30.0978C38.1583 26.5241 38.4792 21.4039 38.667 19.3365C39.1913 13.6474 40.7017 10.8669 46.3286 10.0897L47.4164 38.4873C51.4076 44.4248 55.8841 49.7854 61.057 53.7117C57.1677 59.4931 51.9939 64.2468 45.9608 67.582V67.59Z" fill="#767676"/>
    </g>
    <g>
        <path id="pizza" fill-rule="evenodd" clip-rule="evenodd" d="M28.2143 56.2901C18.9759 55.1578 21.0143 42.034 29.6871 43.0979C38.3269 44.1558 36.6514 57.3237 28.2143 56.2901ZM0 64.411C1.06124 60.7648 2.27842 55.8226 5.7489 54.6115C15.5123 38.5107 39.3864 0 39.3864 0L44.3105 0.984277C44.3105 0.984277 48.2861 16.261 52.3405 31.4424L46.1558 30.8286C43.1488 19.2882 40.4849 9.13553 40.4849 9.13553C40.4849 9.13553 38.3286 12.7117 35.1882 17.9187C43.2554 25.3264 34.9205 40.0205 24.2223 36.1102C19.6395 43.7169 15.2628 50.986 12.9064 54.9154C20.4564 62.0269 46.3152 64.8768 53.7179 60.1631C53.3532 58.7001 52.8784 56.8268 52.3292 54.6799C51.1164 55.0443 49.7484 55.1733 48.2306 54.9872C34.5324 53.3087 37.5558 33.8473 50.4155 35.4237C58.7001 36.4391 60.5809 44.96 57.4977 50.4424C58.7504 54.9439 59.7735 58.4785 60.3479 60.1882C64.6344 62.6675 64.5045 69.9505 65 71.9728C50.9578 81.0226 14.2631 77.4681 0 64.411Z" fill="#767676"/>
    </g>
    <g>
        <path id="sber" fill-rule="evenodd" clip-rule="evenodd" d="M34.5 63C15.4458 63 0 47.521 0 28.4271C0 27.2847 0.0560836 26.1549 0.164301 25.041L21.9168 39.4093L23.5219 39.73L68.1801 20.91C68.7156 23.331 69 25.8454 69 28.4271C69.0008 47.521 53.5549 63 34.5 63ZM21.9176 33.7147L1.06637 19.8674C1.58613 17.8216 2.28994 15.8496 3.15568 13.9677L21.1063 25.5802H22.7312L62.8142 8.67213C64.2771 10.7733 65.5141 13.0454 66.4873 15.4529L23.7162 33.8406L21.9176 33.7147ZM21.1055 19.8856L5.46932 9.74328C6.61705 7.95724 7.92356 6.28362 9.37067 4.74299L21.927 13.0604L54.1324 0C56.1553 1.40524 58.0227 3.02028 59.698 4.81662L22.6435 20.2181L21.1055 19.8856Z" fill="#767676"/>
    </g>
    <g>
        <path id="squirrel" fill-rule="evenodd" clip-rule="evenodd" d="M69.9934 36.9143C66.9311 37.8395 62.0271 39.2508 59.2111 40.0567L58.6477 42.9404C61.2778 43.6554 64.6793 45.441 66.9842 51.2457L61.1789 59.1983C61.1789 59.1983 64.2951 59.4458 68.1193 59.5539C71.4758 59.6478 70.9787 65 70.9787 65H34.4833C34.4833 65 30.9225 45.0384 47.4118 31.46C46.7576 23.4656 47.6766 17.7772 50.6932 14.3821L50.7419 5.25973L58.2265 10.8535C65.1543 10.5157 69.9167 17.9435 70.5657 23.283L61.7955 26.8503L60.7711 32.0832L67.3441 31.8163L69.4616 27.5676C74.6104 29.6029 76.1445 35.0557 69.9934 36.9143ZM30.196 64.7309C21.203 63.6528 14.9929 58.7741 14.9929 48.8637C14.9929 37.873 21.5792 13.5269 1.14394 16.6925L0 14.2091C3.19506 7.28162 9.74966 0 20.7236 0C32.8526 0 38.8799 7.60741 38.8799 21.6793C38.8799 37.9111 27.7473 39.0256 30.196 64.7309Z" fill="#767676"/>
    </g>
    <g>
        <path id="tooth" fill-rule="evenodd" clip-rule="evenodd" d="M51.4264 30.4935C48.2385 34.7232 57.0746 59.6809 42.1638 71L37.4434 67.9466C42.6383 35.4993 13.3579 36.8441 18.8596 67.9417L14.5632 70.9992C-0.61617 58.7549 7.12694 33.5614 4.08634 30.0455C-1.58793 23.4826 -2.65002 13.6646 9.41145 1.65849C13.8861 -2.79561 20.467 4.05891 27.4613 4.05891C34.4557 4.05891 42.4731 -3.16179 47.3156 1.65849C58.2295 12.5215 57.9747 21.8032 51.4264 30.4935ZM44.4817 7.57569C41.3809 4.48909 36.7557 7.18277 32.1166 8.72526C33.9438 10.6728 35.495 12.9533 36.2958 14.572L32.5683 16.0019C30.7021 13.1494 25.985 10.049 22.7027 8.61508C18.5918 7.13092 14.8741 4.818 12.1045 7.57488C7.66816 11.9909 5.37387 15.6608 5.37387 19.2723C5.37387 24.8582 9.96976 27.8792 10.5094 33.0656C23.4303 38.995 29.9827 25.9065 44.734 32.394C44.734 26.5984 50.3016 24.1291 50.3016 19.1192C50.3 15.3084 48.4916 11.5672 44.4817 7.57569Z" fill="#767676"/>
    </g>
    <g>
        <path id="tree" fill-rule="evenodd" clip-rule="evenodd" d="M56.1553 35.2423C57.467 33.0657 57.4814 30.2288 57.4814 27.4225C57.4814 14.2173 43.1985 16.8515 43.1985 16.8515C43.1985 16.8515 43.5194 5.93897 31.826 5.93897C21.0336 5.93897 19.8184 16.71 19.8184 16.71C19.8184 16.71 5.40849 15.3751 5.40849 28.6464C5.40849 30.6933 5.88524 32.7419 6.85567 34.5456L2.32023 36.6247C0.755344 33.9658 0 30.9035 0 27.9285C0 19.7638 5.66761 11.2219 16.0739 11.2219C18.2637 4.35062 24.2853 0 31.8336 0C40.7352 0 45.5424 5.52451 47.2868 11.216C56.5356 11.216 63 19.0052 63 27.6175C63 31.2748 62.0702 35.1177 59.9566 38.1944L56.1553 35.2423ZM25.4877 49.5078C25.5513 34.0938 32.2401 35.7406 33.1182 25.6392L35.7391 25.2536C40.7352 32.9436 42.1256 40.2769 38.4666 49.8943C43.3475 48.2687 44.2714 40.4981 57.0199 41.3982L58.1699 41.85C58.1699 41.85 54.6684 57.687 36.0397 60.7281L34.0505 72L23.6637 70.2133L26.7977 60.8484C11.6807 58.7261 4.55492 41.1033 4.55492 41.1033L6.51356 39.1538C12.6732 44.1817 19.13 40.7261 25.4877 49.5078Z" fill="#767676"/>
    </g>
    <g >
        <path id="facebook"  style="stroke: none; stroke-width: 1; stroke-dasharray: none; stroke-linecap: butt; stroke-dashoffset: 0; stroke-linejoin: miter; stroke-miterlimit: 4; fill: rgb(0,0,0); fill-rule: nonzero; opacity: 1;"  transform=" translate(-29.21, -30.25)" d="M 40.43 21.739 h -7.645 v -5.014 c 0 -1.883 1.248 -2.322 2.127 -2.322 c 0.877 0 5.395 0 5.395 0 V 6.125 l -7.43 -0.029 c -8.248 0 -10.125 6.174 -10.125 10.125 v 5.518 h -4.77 v 8.53 h 4.77 c 0 10.947 0 24.137 0 24.137 h 10.033 c 0 0 0 -13.32 0 -24.137 h 6.77 L 40.43 21.739 z" stroke-linecap="round" />
    </g>
</svg>

