<svg width="74" height="65" viewBox="0 0 74 65" fill="none" xmlns="http://www.w3.org/2000/svg">
<path fill-rule="evenodd" clip-rule="evenodd" d="M69.9934 36.9143C66.9311 37.8395 62.0271 39.2508 59.2111 40.0567L58.6477 42.9404C61.2778 43.6554 64.6793 45.441 66.9842 51.2457L61.1789 59.1983C61.1789 59.1983 64.2951 59.4458 68.1193 59.5539C71.4758 59.6478 70.9787 65 70.9787 65H34.4833C34.4833 65 30.9225 45.0384 47.4118 31.46C46.7576 23.4656 47.6766 17.7772 50.6932 14.3821L50.7419 5.25973L58.2265 10.8535C65.1543 10.5157 69.9167 17.9435 70.5657 23.283L61.7955 26.8503L60.7711 32.0832L67.3441 31.8163L69.4616 27.5676C74.6104 29.6029 76.1445 35.0557 69.9934 36.9143ZM30.196 64.7309C21.203 63.6528 14.9929 58.7741 14.9929 48.8637C14.9929 37.873 21.5792 13.5269 1.14394 16.6925L0 14.2091C3.19506 7.28162 9.74966 0 20.7236 0C32.8526 0 38.8799 7.60741 38.8799 21.6793C38.8799 37.9111 27.7473 39.0256 30.196 64.7309Z" fill="#767676"/>
</svg>
