<svg width="56" height="71" viewBox="0 0 56 71" fill="none" xmlns="http://www.w3.org/2000/svg">
<path fill-rule="evenodd" clip-rule="evenodd" d="M51.4264 30.4935C48.2385 34.7232 57.0746 59.6809 42.1638 71L37.4434 67.9466C42.6383 35.4993 13.3579 36.8441 18.8596 67.9417L14.5632 70.9992C-0.61617 58.7549 7.12694 33.5614 4.08634 30.0455C-1.58793 23.4826 -2.65002 13.6646 9.41145 1.65849C13.8861 -2.79561 20.467 4.05891 27.4613 4.05891C34.4557 4.05891 42.4731 -3.16179 47.3156 1.65849C58.2295 12.5215 57.9747 21.8032 51.4264 30.4935ZM44.4817 7.57569C41.3809 4.48909 36.7557 7.18277 32.1166 8.72526C33.9438 10.6728 35.495 12.9533 36.2958 14.572L32.5683 16.0019C30.7021 13.1494 25.985 10.049 22.7027 8.61508C18.5918 7.13092 14.8741 4.818 12.1045 7.57488C7.66816 11.9909 5.37387 15.6608 5.37387 19.2723C5.37387 24.8582 9.96976 27.8792 10.5094 33.0656C23.4303 38.995 29.9827 25.9065 44.734 32.394C44.734 26.5984 50.3016 24.1291 50.3016 19.1192C50.3 15.3084 48.4916 11.5672 44.4817 7.57569Z" fill="#767676"/>
</svg>
