<svg width="63" height="72" viewBox="0 0 63 72" fill="none" xmlns="http://www.w3.org/2000/svg">
<path fill-rule="evenodd" clip-rule="evenodd" d="M49.8818 27.1543C49.3273 27.1543 48.7913 27.1289 48.2703 27.0843L50.3173 23.3055C62.3024 22.7133 62.1912 3.81844 49.5247 3.81844C44.0051 3.81844 40.7449 7.3836 39.8811 11.4652L51.8326 11.4037L52.9959 13.6338L29.7748 46.6244L30.6444 62.9163C48.2018 63.8445 46.9909 72 27.6273 72C6.45119 72 6.13045 63.8643 23.8005 62.9191L24.5639 46.7864L0 14.2613L1.60656 11.6633L35.9809 11.4858C36.8975 5.46129 41.5154 1.38252e-08 49.576 1.38252e-08C67.4799 -0.000707499 67.3672 27.1543 49.8818 27.1543ZM5.79617 15.5582C5.79617 15.5582 20.3571 34.6568 22.2003 37.1522C24.0699 39.6837 30.3793 39.4389 32.0984 37.1331C33.6779 35.0148 47.0871 15.2228 47.0871 15.2228L5.79617 15.5582ZM30.6159 34.2535C29.1854 36.3704 25.0378 36.4305 23.139 33.9089C21.6508 31.9314 13.0756 20.44 13.0756 20.44C24.628 15.1033 27.144 25.5844 39.5297 20.953C39.5297 20.953 31.7314 32.6043 30.6159 34.2535Z" fill="#767676"/>
</svg>
