<svg width="78" height="78" viewBox="0 0 78 78" fill="none" xmlns="http://www.w3.org/2000/svg">
<path fill-rule="evenodd" clip-rule="evenodd" d="M72.0725 30.1638C70.6593 31.0236 68.9975 32.0202 67.2572 33.0624C67.3193 33.8863 67.3193 34.7137 67.2572 35.5376L78 34.795C78 34.795 76.1223 44.1291 69.763 43.3084L65.0785 42.657C64.6846 43.3354 64.2475 43.9881 63.77 44.6111L73.7604 49.4312C73.7604 49.4312 67.9638 56.0621 63.2466 52.4991C62.0035 51.5611 60.4987 50.4082 58.9482 49.2423C58.1373 49.8129 57.2917 50.3328 56.4162 50.799L62.4746 57.964C62.4746 57.964 54.9572 61.4488 52.2748 56.5962C51.7252 55.6061 51.0906 54.4402 50.4298 53.2221C49.2309 53.5718 48.0146 53.8588 46.7856 54.0819C48.4409 57.443 50.456 61.5465 51.6663 64.0413C53.302 67.4023 51.1691 70.1511 47.0081 73.1213L43.8807 62.4259L42.075 62.9079L43.9985 75.121C42.5264 76.0394 40.9235 76.9904 39.2094 78C37.4429 77.1793 35.7745 76.339 34.2567 75.4792L36.1344 62.5366L34.3221 62.1132L31.1621 73.5316C26.9094 70.5419 24.7438 67.3502 26.4711 64.0022L31.5677 54.1601C30.2168 53.9258 28.8801 53.617 27.5637 53.2351C26.9094 54.4597 26.2552 55.6191 25.7121 56.6157C23.0362 61.4684 15.5123 57.9836 15.5123 57.9836L21.5773 50.8186C20.7039 50.3463 19.8585 49.8243 19.0453 49.2553C17.4947 50.4473 15.9899 51.6002 14.7469 52.5121C10.0297 56.0751 4.22647 49.4442 4.22647 49.4442L14.2235 44.6176C13.7467 43.9941 13.3097 43.3414 12.9149 42.6635C11.2204 42.898 9.60443 43.113 8.22396 43.3149C1.86462 44.1356 0 34.7885 0 34.7885L10.7428 35.5311C10.6807 34.7072 10.6807 33.8798 10.7428 33.0559C8.98289 32.0072 7.32109 31.0106 5.9079 30.1638C-0.713135 26.1449 4.63865 15.9381 4.63865 15.9381L23.1278 32.9191C20.0398 35.8307 21.2501 42.4355 26.687 42.4355C34.3352 42.4355 33.9884 31.5578 26.8113 31.5578C26.3599 31.5557 25.9098 31.6059 25.4701 31.7076L24.8812 29.8316L28.7413 27.7408L28.303 26.4836C28.303 26.4836 24.8943 26.2491 22.8988 28.3075L21.2763 20.2957L37.8812 22.1456L35.6502 25.8192L39.0851 32.9842L42.5199 25.8192L40.3216 22.1456L56.0237 20.0156L55.2713 28.3075C53.6029 26.2101 49.7297 26.4836 49.7297 26.4836L49.2914 27.7408L53.4066 29.9163L52.7524 31.7076C52.3055 31.6091 51.8492 31.5589 51.3915 31.5578C44.1948 31.5578 43.8676 42.4355 51.5093 42.4355C57.005 42.4355 58.2023 35.7004 54.9768 32.8344L73.381 15.899C73.381 15.899 78.6935 26.1319 72.0725 30.1638ZM33.5239 17.4622C25.1495 6.67566 34.9633 4.94304 34.9633 4.94304L39.0131 11.118L43.2461 4.87139C43.2461 4.87139 52.4056 6.63658 45.1565 17.5078L33.5239 17.4622ZM36.1409 1.82952C37.2073 -0.717314 40.8908 -0.391631 42.232 1.49732L39.0131 6.86456L36.1409 1.82952Z" fill="#C5C5C5"/>
</svg>
