<svg width="72" height="73" viewBox="0 0 72 73" fill="none" xmlns="http://www.w3.org/2000/svg">
<path id="Vector" fill-rule="evenodd" clip-rule="evenodd" d="M57.6052 49.6066C50.8288 49.6066 43.97 44.9408 43.97 36.0239C43.97 30.4226 39.6974 27.4926 35.4775 27.4926C33.3375 27.4926 31.3885 28.2587 29.9892 29.6506C28.3357 31.2963 27.4615 33.8132 27.4615 36.9302C27.4615 52.1728 35.2215 61.1539 51.8807 65.1947C53.428 65.5702 54.382 67.1467 54.0124 68.7147C53.6955 70.055 52.5153 70.9571 51.2131 70.9571C50.9909 70.9571 50.7654 70.9312 50.5407 70.877C31.4041 66.2345 21.7008 54.8132 21.7008 36.931C21.7008 30.9667 24.0145 27.4133 25.9553 25.4814C28.4377 23.0112 31.8206 21.6509 35.4783 21.6509C44.7363 21.6509 49.7316 29.0565 49.7316 36.0239C49.7316 41.3715 53.6865 43.7649 57.606 43.7649C59.8588 43.7649 62.0358 42.9638 63.5774 41.5668C65.3191 39.9896 66.2393 37.6804 66.2393 34.8906C66.2393 16.9475 50.1143 5.84167 35.1746 5.84167C25.3092 5.84167 16.8809 10.2021 11.4428 18.12C5.10343 27.3515 3.9931 40.1924 8.47312 52.4699C9.02458 53.982 8.26241 55.6636 6.77099 56.2227C5.27792 56.7827 3.62107 56.0099 3.0696 54.4961C-2.06312 40.4277 -0.700099 25.5807 6.71667 14.7819C13.1663 5.38769 23.5379 0 35.1738 0C45.6928 0 55.2742 3.93645 62.1535 11.0841C68.4114 17.5851 72 26.2625 72 34.8906C72 40.5762 69.5069 44.0287 67.4163 45.923C64.7931 48.2989 61.309 49.6066 57.6052 49.6066ZM34.5993 10.5667C47.3496 9.78313 60.5855 19.8183 60.5855 35.3012C60.5855 36.9143 59.2958 38.222 57.7048 38.222C56.1138 38.222 54.8248 36.9143 54.8248 35.3012C54.8248 23.0304 44.3594 15.4571 34.5993 16.4093C25.5997 17.2863 16.6685 23.3784 16.2636 36.4353C15.8125 50.9602 21.1173 60.8752 31.5399 67.6157C32.8807 68.4836 33.2741 70.2895 32.4181 71.6489C31.8691 72.5227 30.9382 73 29.9868 73C29.4567 73 28.9209 72.8523 28.4402 72.5418C16.3697 64.734 10.0666 52.918 10.5012 36.4362C10.9481 19.492 22.8877 11.2878 34.5993 10.5667ZM33.0667 36.4403C33.0667 34.8264 34.3565 33.5195 35.9483 33.5195C37.5393 33.5195 38.8291 34.8264 38.8291 36.4403C38.8291 41.9999 40.6958 46.5798 44.2268 49.6842C48.5949 53.5247 55.303 54.9159 63.6268 53.7066C65.1981 53.4813 66.6615 54.5879 66.887 56.1843C67.1117 57.7816 66.0187 59.2604 64.4433 59.4891C62.2309 59.8103 60.1024 59.9706 58.0686 59.9706C50.8831 59.9706 44.8697 57.9811 40.4522 54.0972C35.6899 49.9112 33.0667 43.6398 33.0667 36.4403Z" fill="#767676"/>
</svg>
