<svg width="60" height="77" viewBox="0 0 60 77"  xmlns="http://www.w3.org/2000/svg">

    <g>
        <path id='apple' fill-rule="evenodd" clip-rule="evenodd" d="M40.363 76.5849L30.3066 73.7354L20.3982 77C-10.8279 56.9302 -5.04142 17.6312 29.8236 29.952C67.6845 17.0634 68.4349 57.5744 40.363 76.5849ZM31.0484 35.9263L31.0329
    67.6753L39.7311 70.0642C60.8974 55.1195 60.9883 23.5755 31.0484 35.9263ZM36.081 55.4223C36.081 55.4223 36.081 49.4806 36.081 46.0152C36.081 40.734 44.2426 40.2048 44.2426 46.0152C44.2426 51.7922 36.081 55.4223 36.081
    55.4223ZM27.6372 24.3929L9.91941 5.53425L15.4514 0L25.0456 13.9257C26.5465 6.24618 35.6395 0.744531 44.4659 0.0694762C48.6242 12.3586 43.8254 26.7123 27.6372 24.3929Z" fill="white"/>
    </g>


    <g>
        <path id='balalaika' fill-rule="evenodd" clip-rule="evenodd" d="M55.292 50.4676L35.4283 54.9521C33.5661 57.9614 38.7389 60.1859 39.5263 59.4306L40.2793 60.6933C37.5894 63.9445 32.1521 65.7914 27.8874 64.3163C18.6223 73.9578 7.28797 80 7.28797 80L0 30.683C0 30.683 12.8747 33.2674 24.594 39.7109C28.6174 37.2916 34.4225 36.8727 38.9631 39.9056L38.7102 41.5224C35.003 41.4633 32.7959 44.0832 33.8304 46.0304L33.9684 46.1602L54.3667 44.449L67.293 37.2975L68 51.6241L55.292 50.4676ZM11.6217 66.6765C8.79385 67.1367 9.25366 71.6861 12.5183 71.155C15.2714 70.7302 14.5012 66.2281 11.6217 66.6765ZM17.7659 48.3847L13.0931 49.4232L15.7025 61.2716L19.4557 60.3157L17.7659 48.3847ZM26.9621 46.4847L22.2433 47.2577L24.6228 59.0176L28.4219 58.0617L26.9621 46.4847ZM37.9745 33.0432L38.7906 24.2632L36.2559 23.6023L37.4859 17.3536L32.1406 17.2179C32.1406 17.2179 31.267 24.0566 31.0314 26.3461C30.2382 34.6423 19.5706 32.0283 22.7491 24.8237L28.7381 25.6498L29.6232 11.8012L44.1014 12.6331L41.8024 19.761L44.4635 20.4101L37.9745 33.0432ZM24.8987 5.72356C24.8987 5.72356 23.9733 13.1937 23.8239 14.7514C23.0134 23.266 11.432 20.9883 14.8633 13.1996L21.3409 14.0906L22.341 0L31.8992 0.513351C32.8419 3.99469 28.9105 5.72356 24.8987 5.72356Z" fill="#767676"/>

    </g>

    <g>
        <path id="brain" fill-rule="evenodd" clip-rule="evenodd" d="M86.8021 41.5694C86.1227 45.579 83.8041 48.8399 80.2752 50.7519C79.7944 51.0127 79.2891 51.2264 78.771 51.4118C79.4305 60.0609 65.5415 63.1977 58.0602 61.1332L60.8389 70.7525L53.6898 71L41.1691 53.2846C36.9536 54.4614 31.9682 55.0309 28.7556 49.9232C28.4513 49.4392 28.1859 48.9545 27.957 48.4667C27.1259 48.634 26.2939 48.7189 25.4699 48.7189C23.0717 48.7189 19.1321 48.0166 17.0931 46.6308C15.3918 45.4745 14.118 43.9709 13.4291 42.384C9.13184 42.963 5.51317 41.9677 3.07927 39.4955C0.0605353 36.4286 -0.80162 31.3507 0.772509 25.9106C2.87506 18.6457 9.18032 10.4585 21.7201 7.4089C22.7626 6.12607 24.0356 4.97521 25.5756 4.00032C33.4486 -0.987267 46.2419 -1.41776 55.933 3.31137C59.4356 2.62007 63.2744 2.93901 67.1402 4.37425C74.1169 6.96348 79.1881 12.3666 80.1409 17.8586C82.0297 18.857 83.5553 20.2938 84.5748 22.1894C86.6639 26.0717 86.9921 29.9634 85.5514 33.1057C86.8307 35.548 87.3067 38.5921 86.8021 41.5694ZM81.6491 37.4782C78.0137 39.5151 74.4435 37.4789 74.4435 37.4789L75.0204 33.6713C77.4718 33.9038 79.4686 33.1497 80.5088 31.6076C81.6705 29.888 81.4901 27.3294 80.0161 24.587C78.3633 21.5154 74.7955 21.0268 72.8153 21.0087C72.774 21.0087 72.7319 21.0079 72.6898 21.0079C67.733 21.0079 62.6785 23.7951 60.6363 27.4331L57.6629 26.0245C58.2954 24.0331 59.2974 22.3544 60.5672 20.9718C58.4408 19.2097 57.0566 16.0714 57.7415 12.9904L60.6744 12.7233C60.6506 14.0462 62.0992 17.1099 65.0838 17.7478C67.412 16.6928 70.0723 16.1688 72.8622 16.1884C73.2452 16.1916 73.6107 16.2277 73.9826 16.2513C72.3958 13.3627 69.4446 10.4648 65.4644 8.93997C56.6553 5.5636 50.7195 10.8049 49.3631 12.6062C46.0941 16.9489 48.1903 21.0425 49.7835 23.7087L47.1597 26.0403C45.0229 24.0787 43.2351 21.4942 42.8219 18.4792C39.4622 19.4768 34.9496 19.2372 32.422 14.9936L34.8082 13.3784C37.4876 15.3612 41.734 15.1892 43.7547 12.7406C44.1997 11.768 44.783 10.7727 45.5673 9.75304C46.7544 8.20861 48.1378 6.92263 49.6651 5.89432C43.0746 4.11736 33.7664 4.4096 28.1461 7.9698C24.9057 10.0217 23.33 12.8364 23.33 16.5749C23.33 19.3786 25.5573 23.8077 28.5498 24.5037L26.7961 27.8667C24.7317 27.3867 23.0821 26.3498 21.8131 25.0135L19.2282 28.2658L16.664 27.0136L19.1885 20.4816C18.7729 19.1799 18.5615 17.8413 18.5615 16.5749C18.5615 15.4704 18.691 14.4193 18.8976 13.4028C10.9849 16.6488 7.02294 22.0103 5.58469 26.979C4.48653 30.7741 4.91245 34.196 6.72496 36.0366C8.16162 37.4954 10.3659 37.838 12.4382 37.7052L17.96 33.4238L19.7868 34.9486L18.1316 40.3094C18.9994 43.0353 21.8361 44.443 27.013 43.432C27.195 41.5081 27.9952 39.5371 29.5105 37.4915C30.669 35.9282 31.9897 34.852 33.4279 34.1073L36.1455 26.8722L38.8671 26.752L38.5739 32.687C43.1413 32.2203 48.2554 33.145 53.0088 32.4348L53.8885 35.5559C46.9094 38.7437 39.765 33.5424 33.2889 40.4052C30.9623 42.8711 31.8467 45.0141 33.2968 47.1752C35.3684 50.2641 39.2612 48.4062 43.2414 47.2043C49.2773 45.3818 53.658 44.0974 61.9077 44.7282C59.9434 41.0329 60.1341 36.5622 62.7714 31.6429L66.6507 33.1622C63.9284 39.3745 66.4815 42.9677 68.2447 44.5561C70.9703 47.0103 75.0721 47.7487 77.7928 46.275C80.6423 44.7298 81.4695 42.1342 81.7087 40.7249C81.8914 39.6377 81.8557 38.5175 81.6491 37.4782Z" fill="#767676"/>
    </g>

    <g>
        <path id="coctail" fill-rule="evenodd" clip-rule="evenodd" d="M49.8818 27.1543C49.3273 27.1543 48.7913 27.1289 48.2703 27.0843L50.3173 23.3055C62.3024 22.7133 62.1912 3.81844 49.5247 3.81844C44.0051 3.81844 40.7449 7.3836 39.8811 11.4652L51.8326 11.4037L52.9959 13.6338L29.7748 46.6244L30.6444 62.9163C48.2018 63.8445 46.9909 72 27.6273 72C6.45119 72 6.13045 63.8643 23.8005 62.9191L24.5639 46.7864L0 14.2613L1.60656 11.6633L35.9809 11.4858C36.8975 5.46129 41.5154 1.38252e-08 49.576 1.38252e-08C67.4799 -0.000707499 67.3672 27.1543 49.8818 27.1543ZM5.79617 15.5582C5.79617 15.5582 20.3571 34.6568 22.2003 37.1522C24.0699 39.6837 30.3793 39.4389 32.0984 37.1331C33.6779 35.0148 47.0871 15.2228 47.0871 15.2228L5.79617 15.5582ZM30.6159 34.2535C29.1854 36.3704 25.0378 36.4305 23.139 33.9089C21.6508 31.9314 13.0756 20.44 13.0756 20.44C24.628 15.1033 27.144 25.5844 39.5297 20.953C39.5297 20.953 31.7314 32.6043 30.6159 34.2535Z" fill="#767676"/>
    </g>

    <g>
        <path id="eagle" fill-rule="evenodd" clip-rule="evenodd" d="M72.0725 30.1638C70.6593 31.0236 68.9975 32.0202 67.2572 33.0624C67.3193 33.8863 67.3193 34.7137 67.2572 35.5376L78 34.795C78 34.795 76.1223 44.1291 69.763 43.3084L65.0785 42.657C64.6846 43.3354 64.2475 43.9881 63.77 44.6111L73.7604 49.4312C73.7604 49.4312 67.9638 56.0621 63.2466 52.4991C62.0035 51.5611 60.4987 50.4082 58.9482 49.2423C58.1373 49.8129 57.2917 50.3328 56.4162 50.799L62.4746 57.964C62.4746 57.964 54.9572 61.4488 52.2748 56.5962C51.7252 55.6061 51.0906 54.4402 50.4298 53.2221C49.2309 53.5718 48.0146 53.8588 46.7856 54.0819C48.4409 57.443 50.456 61.5465 51.6663 64.0413C53.302 67.4023 51.1691 70.1511 47.0081 73.1213L43.8807 62.4259L42.075 62.9079L43.9985 75.121C42.5264 76.0394 40.9235 76.9904 39.2094 78C37.4429 77.1793 35.7745 76.339 34.2567 75.4792L36.1344 62.5366L34.3221 62.1132L31.1621 73.5316C26.9094 70.5419 24.7438 67.3502 26.4711 64.0022L31.5677 54.1601C30.2168 53.9258 28.8801 53.617 27.5637 53.2351C26.9094 54.4597 26.2552 55.6191 25.7121 56.6157C23.0362 61.4684 15.5123 57.9836 15.5123 57.9836L21.5773 50.8186C20.7039 50.3463 19.8585 49.8243 19.0453 49.2553C17.4947 50.4473 15.9899 51.6002 14.7469 52.5121C10.0297 56.0751 4.22647 49.4442 4.22647 49.4442L14.2235 44.6176C13.7467 43.9941 13.3097 43.3414 12.9149 42.6635C11.2204 42.898 9.60443 43.113 8.22396 43.3149C1.86462 44.1356 0 34.7885 0 34.7885L10.7428 35.5311C10.6807 34.7072 10.6807 33.8798 10.7428 33.0559C8.98289 32.0072 7.32109 31.0106 5.9079 30.1638C-0.713135 26.1449 4.63865 15.9381 4.63865 15.9381L23.1278 32.9191C20.0398 35.8307 21.2501 42.4355 26.687 42.4355C34.3352 42.4355 33.9884 31.5578 26.8113 31.5578C26.3599 31.5557 25.9098 31.6059 25.4701 31.7076L24.8812 29.8316L28.7413 27.7408L28.303 26.4836C28.303 26.4836 24.8943 26.2491 22.8988 28.3075L21.2763 20.2957L37.8812 22.1456L35.6502 25.8192L39.0851 32.9842L42.5199 25.8192L40.3216 22.1456L56.0237 20.0156L55.2713 28.3075C53.6029 26.2101 49.7297 26.4836 49.7297 26.4836L49.2914 27.7408L53.4066 29.9163L52.7524 31.7076C52.3055 31.6091 51.8492 31.5589 51.3915 31.5578C44.1948 31.5578 43.8676 42.4355 51.5093 42.4355C57.005 42.4355 58.2023 35.7004 54.9768 32.8344L73.381 15.899C73.381 15.899 78.6935 26.1319 72.0725 30.1638ZM33.5239 17.4622C25.1495 6.67566 34.9633 4.94304 34.9633 4.94304L39.0131 11.118L43.2461 4.87139C43.2461 4.87139 52.4056 6.63658 45.1565 17.5078L33.5239 17.4622ZM36.1409 1.82952C37.2073 -0.717314 40.8908 -0.391631 42.232 1.49732L39.0131 6.86456L36.1409 1.82952Z" fill="#C5C5C5"/>

    </g>
</svg>
