<svg width="63" height="72" viewBox="0 0 63 72" fill="none" xmlns="http://www.w3.org/2000/svg">
<path id="Vector" fill-rule="evenodd" clip-rule="evenodd" d="M56.1553 35.2423C57.467 33.0657 57.4814 30.2288 57.4814 27.4225C57.4814 14.2173 43.1985 16.8515 43.1985 16.8515C43.1985 16.8515 43.5194 5.93897 31.826 5.93897C21.0336 5.93897 19.8184 16.71 19.8184 16.71C19.8184 16.71 5.40849 15.3751 5.40849 28.6464C5.40849 30.6933 5.88524 32.7419 6.85567 34.5456L2.32023 36.6247C0.755344 33.9658 0 30.9035 0 27.9285C0 19.7638 5.66761 11.2219 16.0739 11.2219C18.2637 4.35062 24.2853 0 31.8336 0C40.7352 0 45.5424 5.52451 47.2868 11.216C56.5356 11.216 63 19.0052 63 27.6175C63 31.2748 62.0702 35.1177 59.9566 38.1944L56.1553 35.2423ZM25.4877 49.5078C25.5513 34.0938 32.2401 35.7406 33.1182 25.6392L35.7391 25.2536C40.7352 32.9436 42.1256 40.2769 38.4666 49.8943C43.3475 48.2687 44.2714 40.4981 57.0199 41.3982L58.1699 41.85C58.1699 41.85 54.6684 57.687 36.0397 60.7281L34.0505 72L23.6637 70.2133L26.7977 60.8484C11.6807 58.7261 4.55492 41.1033 4.55492 41.1033L6.51356 39.1538C12.6732 44.1817 19.13 40.7261 25.4877 49.5078Z" fill="#767676"/>
</svg>
