<svg  xmlns="http://www.w3.org/2000/svg"  viewBox="0 0 24 24" width="24px" height="24px">
    <g>
        <path id="fb"  d="M16.403,9H14V7c0-1.032,0.084-1.682,1.563-1.682h0.868c0.552,0,1-0.448,1-1V3.064c0-0.523-0.401-0.97-0.923-1.005C15.904,2.018,15.299,1.999,14.693,2C11.98,2,10,3.657,10,6.699V9H8c-0.552,0-1,0.448-1,1v2c0,0.552,0.448,1,1,1l2-0.001V21c0,0.552,0.448,1,1,1h2c0.552,0,1-0.448,1-1v-8.003l2.174-0.001c0.508,0,0.935-0.381,0.993-0.886l0.229-1.996C17.465,9.521,17.001,9,16.403,9z"/>
    </g>

    <g>
        <path  id="instagram"  d="M 8 3 C 5.239 3 3 5.239 3 8 L 3 16 C 3 18.761 5.239 21 8 21 L 16 21 C 18.761 21 21 18.761 21 16 L 21 8 C 21 5.239 18.761 3 16 3 L 8 3 z M 18 5 C 18.552 5 19 5.448 19 6 C 19 6.552 18.552 7 18 7 C 17.448 7 17 6.552 17 6 C 17 5.448 17.448 5 18 5 z M 12 7 C 14.761 7 17 9.239 17 12 C 17 14.761 14.761 17 12 17 C 9.239 17 7 14.761 7 12 C 7 9.239 9.239 7 12 7 z M 12 9 A 3 3 0 0 0 9 12 A 3 3 0 0 0 12 15 A 3 3 0 0 0 15 12 A 3 3 0 0 0 12 9 z"/>
    </g>

    <g>
        <path id="pinterest" d="M12,2C6.477,2,2,6.477,2,12c0,4.237,2.636,7.855,6.356,9.312c-0.087-0.791-0.167-2.005,0.035-2.868 c0.182-0.78,1.172-4.971,1.172-4.971s-0.299-0.599-0.299-1.484c0-1.391,0.806-2.428,1.809-2.428c0.853,0,1.265,0.641,1.265,1.408 c0,0.858-0.546,2.141-0.828,3.329c-0.236,0.996,0.499,1.807,1.481,1.807c1.777,0,3.143-1.874,3.143-4.579 c0-2.394-1.72-4.068-4.177-4.068c-2.845,0-4.515,2.134-4.515,4.34c0,0.859,0.331,1.781,0.744,2.282 c0.082,0.099,0.093,0.186,0.069,0.287c-0.076,0.316-0.244,0.995-0.277,1.134c-0.043,0.183-0.145,0.222-0.334,0.133 c-1.249-0.582-2.03-2.408-2.03-3.874c0-3.154,2.292-6.052,6.608-6.052c3.469,0,6.165,2.472,6.165,5.776 c0,3.447-2.173,6.22-5.189,6.22c-1.013,0-1.966-0.527-2.292-1.148c0,0-0.502,1.909-0.623,2.378 c-0.226,0.868-0.835,1.958-1.243,2.622C9.975,21.843,10.969,22,12,22c5.522,0,10-4.478,10-10S17.523,2,12,2z"/>

    </g>

    <g>
        <path id="x" d="M 2.8671875 3 L 9.7363281 12.818359 L 2.734375 21 L 5.3808594 21 L 10.919922 14.509766 L 15.460938 21 L 21.371094 21 L 14.173828 10.697266 L 20.744141 3 L 18.138672 3 L 12.996094 9.0097656 L 8.7988281 3 L 2.8671875 3 z"/>

    </g>

    <g>

        <path id="youtube" d="M21.582,6.186c-0.23-0.86-0.908-1.538-1.768-1.768C18.254,4,12,4,12,4S5.746,4,4.186,4.418 c-0.86,0.23-1.538,0.908-1.768,1.768C2,7.746,2,12,2,12s0,4.254,0.418,5.814c0.23,0.86,0.908,1.538,1.768,1.768 C5.746,20,12,20,12,20s6.254,0,7.814-0.418c0.861-0.23,1.538-0.908,1.768-1.768C22,16.254,22,12,22,12S22,7.746,21.582,6.186z M10,15.464V8.536L16,12L10,15.464z"/>
    </g>









</svg>